<svg width="16" height="15" viewBox="0 0 16 15" fill="none" xmlns="http://www.w3.org/2000/svg">
<path d="M3.65934 8.48252L8.50649 13.3297C8.70434 13.5275 8.7993 13.7583 8.79139 14.0221C8.78347 14.2859 8.68027 14.5167 8.48176 14.7146C8.28392 14.8959 8.0531 14.9909 7.78931 14.9995C7.52552 15.008 7.29471 14.9131 7.09686 14.7146L0.568042 8.18575C0.46912 8.08683 0.398886 7.97967 0.357339 7.86426C0.315792 7.74885 0.295678 7.6252 0.296997 7.4933C0.298316 7.36141 0.319089 7.23776 0.359317 7.12235C0.399545 7.00694 0.46945 6.89978 0.569031 6.80085L7.09785 0.272034C7.27921 0.0906777 7.50607 0 7.77843 0C8.0508 0 8.28557 0.0906777 8.48275 0.272034C8.6806 0.469877 8.77952 0.704981 8.77952 0.977344C8.77952 1.24971 8.6806 1.48448 8.48275 1.68167L3.65934 6.50409H14.7138C14.9941 6.50409 15.2292 6.59905 15.4191 6.78898C15.6091 6.97891 15.7037 7.21369 15.703 7.4933C15.7024 7.77292 15.6074 8.00803 15.4181 8.19862C15.2289 8.3892 14.9941 8.48384 14.7138 8.48252H3.65934Z" fill="#444444"/>
</svg>
