<svg width="12" height="12" viewBox="0 0 12 12" fill="none" xmlns="http://www.w3.org/2000/svg">
<path d="M6 6.6948L0.851816 11.843C0.760222 11.9346 0.647694 11.9836 0.514229 11.9902C0.380765 11.9967 0.261694 11.9477 0.157017 11.843C0.0523387 11.7383 0 11.6225 0 11.4956C0 11.3687 0.0523387 11.2529 0.157017 11.1482L5.3052 6L0.157017 0.851816C0.0654235 0.760222 0.0163557 0.647694 0.0098133 0.514229C0.00327094 0.380765 0.0523387 0.261694 0.157017 0.157017C0.261694 0.0523387 0.377494 0 0.504416 0C0.631338 0 0.747138 0.0523387 0.851816 0.157017L6 5.3052L11.1482 0.157017C11.2398 0.0654235 11.3526 0.0163557 11.4868 0.0098133C11.6196 0.00327094 11.7383 0.0523387 11.843 0.157017C11.9477 0.261694 12 0.377494 12 0.504416C12 0.631338 11.9477 0.747138 11.843 0.851816L6.6948 6L11.843 11.1482C11.9346 11.2398 11.9836 11.3526 11.9902 11.4868C11.9967 11.6196 11.9477 11.7383 11.843 11.843C11.7383 11.9477 11.6225 12 11.4956 12C11.3687 12 11.2529 11.9477 11.1482 11.843L6 6.6948Z" fill="#FF0700"/>
</svg>
