<svg width="16" height="16" viewBox="0 0 16 16" fill="none" xmlns="http://www.w3.org/2000/svg">
<circle cx="8" cy="8" r="8" fill="#FF0700"/>
<path d="M8 8.4632L4.56788 11.8953C4.50681 11.9564 4.4318 11.9891 4.34282 11.9935C4.25384 11.9978 4.17446 11.9651 4.10468 11.8953C4.03489 11.8255 4 11.7483 4 11.6637C4 11.5791 4.03489 11.5019 4.10468 11.4321L7.5368 8L4.10468 4.56788C4.04362 4.50681 4.0109 4.4318 4.00654 4.34282C4.00218 4.25384 4.03489 4.17446 4.10468 4.10468C4.17446 4.03489 4.25166 4 4.33628 4C4.42089 4 4.49809 4.03489 4.56788 4.10468L8 7.5368L11.4321 4.10468C11.4932 4.04362 11.5684 4.0109 11.6578 4.00654C11.7464 4.00218 11.8255 4.03489 11.8953 4.10468C11.9651 4.17446 12 4.25166 12 4.33628C12 4.42089 11.9651 4.49809 11.8953 4.56788L8.4632 8L11.8953 11.4321C11.9564 11.4932 11.9891 11.5684 11.9935 11.6578C11.9978 11.7464 11.9651 11.8255 11.8953 11.8953C11.8255 11.9651 11.7483 12 11.6637 12C11.5791 12 11.5019 11.9651 11.4321 11.8953L8 8.4632Z" stroke="#FFE6E6"/>
</svg>
