<svg width="126" height="125" viewBox="0 0 126 125" fill="none" xmlns="http://www.w3.org/2000/svg">
<path d="M0.5 15C0.5 6.71573 7.21573 0 15.5 0H110.5C118.784 0 125.5 6.71573 125.5 15V110C125.5 118.284 118.784 125 110.5 125H15.5C7.21573 125 0.5 118.284 0.5 110V15Z" fill="#DDDDDD"/>
<path fill-rule="evenodd" clip-rule="evenodd" d="M89.1081 30.0278L88.8581 29.8333C88.3776 26.1833 86.6303 22.3806 83.9025 19.175C79.472 13.9667 72.2498 10 62.5831 10C53.0553 10 46.3414 14.3444 42.3803 19.7306C40.5315 22.2215 39.211 25.0639 38.4998 28.0833C38.3706 28.6488 38.2668 29.2197 38.1887 29.7944L37.8887 30.025C34.7664 32.4444 32.4748 35.3778 33.0192 38.7417C33.5414 41.9917 36.4803 43.9694 39.2137 45.1778C39.91 45.4852 40.6572 45.7741 41.4553 46.0444C41.0537 49.1758 41.3239 52.3567 42.2479 55.3755C43.1719 58.3942 44.7284 61.1814 46.8139 63.5515C48.8994 65.9215 51.466 67.82 54.3426 69.1205C57.2193 70.421 60.34 71.0937 63.497 71.0937C66.654 71.0937 69.7747 70.421 72.6514 69.1205C75.528 67.82 78.0946 65.9215 80.1801 63.5515C82.2656 61.1814 83.8221 58.3942 84.7461 55.3755C85.6701 52.3567 85.9403 49.1758 85.5387 46.0444C86.3368 45.7759 87.084 45.487 87.7803 45.1778C90.5137 43.9694 93.4498 41.9917 93.9748 38.7417C94.5192 35.3778 92.2275 32.4444 89.1053 30.025M43.8998 34.0861C43.5387 33.0472 43.4442 31.3778 43.9137 29.3139C44.3748 27.3 45.3303 25.0917 46.8303 23.0472V30.8333C46.8303 31.57 47.123 32.2766 47.6439 32.7975C48.1649 33.3185 48.8714 33.6111 49.6081 33.6111C50.3448 33.6111 51.0514 33.3185 51.5723 32.7975C52.0932 32.2766 52.3859 31.57 52.3859 30.8333V18.0833C54.672 16.7833 57.4359 15.875 60.7192 15.625V25.2778C60.7192 26.0145 61.0119 26.721 61.5328 27.242C62.0537 27.7629 62.7603 28.0556 63.497 28.0556C64.2337 28.0556 64.9402 27.7629 65.4612 27.242C65.9821 26.721 66.2748 26.0145 66.2748 25.2778V15.7972C69.2081 16.1667 72.0398 17.1106 74.6081 18.575V30.8333C74.6081 31.57 74.9008 32.2766 75.4217 32.7975C75.9426 33.3185 76.6492 33.6111 77.3859 33.6111C78.1226 33.6111 78.8291 33.3185 79.3501 32.7975C79.871 32.2766 80.1637 31.57 80.1637 30.8333V23.3833C83.2331 27.3167 83.9526 31.5611 83.0887 34.1083C82.8747 34.7388 82.8942 35.4251 83.1437 36.0423C83.3933 36.6596 83.8562 37.1667 84.4482 37.4713C85.0402 37.7758 85.7219 37.8577 86.3692 37.7018C87.0165 37.546 87.5863 37.1629 87.9748 36.6222C88.522 37.3861 88.5026 37.7917 88.4914 37.8556C88.4553 38.0778 88.0303 38.9944 85.5331 40.1C84.4498 40.5778 83.1609 41.0083 81.7137 41.3889L81.647 41.4056C80.0776 41.8111 78.3303 42.1556 76.4609 42.4389C72.9937 42.9385 69.4992 43.2261 65.997 43.3C63.5894 43.3611 61.1805 43.3351 58.7748 43.2222C56.0078 43.0968 53.2488 42.8335 50.5081 42.4333C48.7709 42.1816 47.0481 41.8385 45.347 41.4056L45.2803 41.3889C43.9746 41.0628 42.6973 40.6317 41.4609 40.1C38.9637 38.9944 38.5387 38.0778 38.5026 37.8556C38.4914 37.7917 38.472 37.3861 39.0192 36.6222C39.4084 37.1653 39.9803 37.55 40.63 37.7056C41.2798 37.8613 41.9639 37.7775 42.5569 37.4697C43.1499 37.1619 43.6121 36.6507 43.8587 36.0297C44.1054 35.4088 44.12 34.7197 43.8998 34.0889M46.8914 47.4472C47.8155 47.6269 48.7674 47.7907 49.747 47.9389C52.7137 48.3833 55.9081 48.6667 59.1581 48.8C62.055 48.9194 64.9556 48.9194 67.8526 48.8C71.0859 48.6667 74.2692 48.3833 77.222 47.9389C78.2109 47.7944 79.1711 47.6306 80.1026 47.4472C80.3001 49.7477 80.0175 52.064 79.2727 54.2495C78.5279 56.435 77.3371 58.4418 75.7759 60.1429C74.2147 61.8439 72.317 63.202 70.2033 64.1311C68.0896 65.0601 65.8059 65.5398 63.497 65.5398C61.1881 65.5398 58.9044 65.0601 56.7907 64.1311C54.677 63.202 52.7793 61.8439 51.2181 60.1429C49.6569 58.4418 48.4661 56.435 47.7213 54.2495C46.9765 52.064 46.6939 49.7477 46.8914 47.4472Z" fill="#999999"/>
<path fill-rule="evenodd" clip-rule="evenodd" d="M77.3889 72.4722C79.2167 72.7916 81.0778 73.1638 82.9444 73.5888C98.0639 77.0416 113.5 83.9444 113.5 93.3333V110H13.5V93.3333C13.5 83.9444 28.9361 77.0416 44.0556 73.5888C45.8976 73.1694 47.7501 72.7971 49.6111 72.4722V84.9999H77.3889V72.4722ZM38.5 80.8055C40.3167 80.2499 42.1806 79.7472 44.0556 79.2944V90.5555H82.9444V79.2972C85.7587 79.9689 88.5396 80.7735 91.2778 81.7083V104.444H96.8333V83.8805C97.6407 84.2398 98.4167 84.6092 99.1611 84.9888C102.319 86.5944 104.661 88.25 106.144 89.8333C107.603 91.3888 107.944 92.5361 107.944 93.3333V104.444H19.0556V93.3333C19.0556 92.5361 19.3972 91.3888 20.8556 89.8333C22.3389 88.25 24.6806 86.5944 27.8389 84.9888C29.4194 84.1833 31.1333 83.4277 32.9444 82.7249V104.444H38.5V80.8055Z" fill="#999999"/>
<path d="M16.2168 22.625L8.61417 21.6875C8.07953 21.625 7.73179 21.3437 7.57097 20.8437C7.41015 20.3437 7.52264 19.9167 7.90844 19.5625L21.0287 7.3125C21.1356 7.20833 21.2639 7.13042 21.4136 7.07875C21.5633 7.02708 21.7665 7.00083 22.0231 7C22.4508 7 22.7772 7.17708 23.0022 7.53125C23.2271 7.88542 23.2323 8.25 23.0176 8.625L18.7832 16.375L26.3858 17.3125C26.9205 17.375 27.2682 17.6562 27.429 18.1562C27.5898 18.6562 27.4774 19.0833 27.0916 19.4375L13.9713 31.6875C13.8644 31.7916 13.7361 31.87 13.5864 31.9225C13.4367 31.975 13.2335 32.0008 12.9769 32C12.5492 32 12.2228 31.8229 11.9978 31.4687C11.7729 31.1146 11.7677 30.75 11.9824 30.375L16.2168 22.625Z" fill="#444444"/>
<path d="M99.3061 90.2537C99.3061 90.2537 94.7391 96.4093 90.5692 100.579C88.7821 102.366 86.995 103.558 85.6051 104.55C84.0166 105.543 83.6194 107.728 85.0094 109.117C85.8036 109.912 87.1936 110.309 88.1864 109.713C89.775 108.919 92.1578 107.33 94.7391 104.948C98.909 100.778 103.476 94.6222 103.476 94.6222L99.3061 90.2537ZM93.7463 84.6939C93.7463 84.6939 87.5907 89.2609 83.4209 93.4308C81.6338 95.2179 80.4424 97.005 79.4495 98.3949C78.4567 99.9834 76.2725 100.381 74.8825 98.9906C74.0883 98.1964 73.6911 96.8064 74.2868 95.8136C75.0811 94.225 76.6696 91.8422 79.0524 89.2609C83.2223 85.091 89.3778 80.524 89.3778 80.524L93.7463 84.6939ZM97.3205 76.9498L102.88 71.39L109.83 70L110.823 70.9928L106.256 75.5598C105.263 75.3613 104.27 75.5598 103.476 76.3541C102.285 77.5455 102.285 79.3326 103.476 80.524C104.667 81.7154 106.454 81.7154 107.646 80.524C108.44 79.7297 108.639 78.5383 108.44 77.5455L113.007 73.1771L114 74.1699L112.61 81.1197L107.05 86.6795L104.27 92.2394L100.498 88.4666L102.483 84.8924L99.3061 81.7154L95.5334 83.5025L91.7606 79.7297L97.3205 76.9498Z" fill="#444444"/>
</svg>
