<svg width="20" height="20" viewBox="0 0 20 20" fill="none" xmlns="http://www.w3.org/2000/svg">
<path d="M0.625 2.5C0.625 1.12 1.75583 0 3.14917 0H6.75512C7.04203 4.23432e-09 7.31718 0.112882 7.52006 0.313814C7.72293 0.514746 7.8369 0.787268 7.8369 1.07143C7.8369 1.35559 7.72293 1.62811 7.52006 1.82904C7.31718 2.02997 7.04203 2.14286 6.75512 2.14286H3.14917C3.05353 2.14286 2.96181 2.18048 2.89419 2.24746C2.82656 2.31444 2.78857 2.40528 2.78857 2.5V17.5C2.78857 17.6971 2.95012 17.8571 3.14917 17.8571H6.75512C7.04203 17.8571 7.31718 17.97 7.52006 18.171C7.72293 18.3719 7.8369 18.6444 7.8369 18.9286C7.8369 19.2127 7.72293 19.4853 7.52006 19.6862C7.31718 19.8871 7.04203 20 6.75512 20H3.14917C2.47972 20 1.83768 19.7366 1.36431 19.2678C0.890938 18.7989 0.625 18.163 0.625 17.5V2.5ZM15.6835 8.92857L12.842 6.11429C12.6996 5.98333 12.5955 5.81675 12.5406 5.63211C12.4858 5.44747 12.4823 5.2516 12.5304 5.06514C12.5785 4.87867 12.6766 4.70852 12.8142 4.57261C12.9517 4.43669 13.1238 4.34005 13.3122 4.29286C13.5002 4.24527 13.6978 4.24868 13.884 4.30272C14.0703 4.35676 14.2385 4.45944 14.3709 4.6L19.0586 9.24286C19.2612 9.44375 19.375 9.71607 19.375 10C19.375 10.2839 19.2612 10.5562 19.0586 10.7571L14.3709 15.4C14.2387 15.541 14.0705 15.6441 13.8841 15.6984C13.6976 15.7527 13.4999 15.7562 13.3116 15.7086C13.1233 15.6609 12.9515 15.5638 12.8143 15.4275C12.6771 15.2913 12.5795 15.1209 12.5319 14.9343C12.4838 14.748 12.4873 14.5524 12.5418 14.3679C12.5964 14.1834 12.7001 14.0169 12.842 13.8857L15.6835 11.0714H7.47631C7.1894 11.0714 6.91425 10.9585 6.71137 10.7576C6.5085 10.5567 6.39452 10.2842 6.39452 10C6.39452 9.71584 6.5085 9.44332 6.71137 9.24239C6.91425 9.04145 7.1894 8.92857 7.47631 8.92857H15.6835Z" fill="white"/>
</svg>
