<svg width="101" height="125" viewBox="0 0 101 125" fill="none" xmlns="http://www.w3.org/2000/svg">
<path d="M2 15C2 7.54416 8.04416 1.5 15.5 1.5H85.5C92.9558 1.5 99 7.54416 99 15V110C99 117.456 92.9558 123.5 85.5 123.5H15.5C8.04415 123.5 2 117.456 2 110V15Z" fill="#E6F2FF" fill-opacity="0.6" stroke="#80C2FF" stroke-width="3"/>
<path d="M45.8797 82V80.26L51.4397 74.98C51.9064 74.54 52.253 74.1533 52.4797 73.82C52.7064 73.4867 52.853 73.18 52.9197 72.9C52.9997 72.6067 53.0397 72.3333 53.0397 72.08C53.0397 71.44 52.8197 70.9467 52.3797 70.6C51.9397 70.24 51.293 70.06 50.4397 70.06C49.7597 70.06 49.1397 70.18 48.5797 70.42C48.033 70.66 47.5597 71.0267 47.1597 71.52L45.3397 70.12C45.8864 69.3867 46.6197 68.82 47.5397 68.42C48.473 68.0067 49.513 67.8 50.6597 67.8C51.673 67.8 52.553 67.9667 53.2997 68.3C54.0597 68.62 54.6397 69.08 55.0397 69.68C55.453 70.28 55.6597 70.9933 55.6597 71.82C55.6597 72.2733 55.5997 72.7267 55.4797 73.18C55.3597 73.62 55.133 74.0867 54.7997 74.58C54.4664 75.0733 53.9797 75.6267 53.3397 76.24L48.5597 80.78L48.0197 79.8H56.1997V82H45.8797Z" fill="#80C2FF"/>
<line x1="3.25" y1="28.5" x2="98.25" y2="28.5" stroke="#80C2FF" stroke-width="3"/>
<path d="M75 15C75 16.933 73.433 18.5 71.5 18.5C69.567 18.5 68 16.933 68 15C68 13.067 69.567 11.5 71.5 11.5C73.433 11.5 75 13.067 75 15Z" stroke="#80C2FF" stroke-width="3"/>
<path d="M90 15C90 16.933 88.433 18.5 86.5 18.5C84.567 18.5 83 16.933 83 15C83 13.067 84.567 11.5 86.5 11.5C88.433 11.5 90 13.067 90 15Z" stroke="#80C2FF" stroke-width="3"/>
<path d="M86.5 75.5C86.5 95.3822 70.3823 111.5 50.5 111.5C30.6177 111.5 14.5 95.3822 14.5 75.5C14.5 55.6177 30.6177 39.5 50.5 39.5C70.3823 39.5 86.5 55.6177 86.5 75.5Z" stroke="#80C2FF" stroke-width="3"/>
<path d="M76.5 75.5C76.5 89.8594 64.8594 101.5 50.5 101.5C36.1406 101.5 24.5 89.8594 24.5 75.5C24.5 61.1406 36.1406 49.5 50.5 49.5C64.8594 49.5 76.5 61.1406 76.5 75.5Z" stroke="#80C2FF" stroke-width="3"/>
<path d="M7 15C7 10.3056 10.8056 6.5 15.5 6.5H29.5C34.1944 6.5 38 10.3056 38 15C38 19.6944 34.1944 23.5 29.5 23.5H15.5C10.8056 23.5 7 19.6944 7 15Z" stroke="#80C2FF" stroke-width="3"/>
</svg>
