<svg width="126" height="125" viewBox="0 0 126 125" fill="none" xmlns="http://www.w3.org/2000/svg">
<path d="M0.5 15C0.5 6.71573 7.21573 0 15.5 0H110.5C118.784 0 125.5 6.71573 125.5 15V110C125.5 118.284 118.784 125 110.5 125H15.5C7.21573 125 0.5 118.284 0.5 110V15Z" fill="#0086FF"/>
<path fill-rule="evenodd" clip-rule="evenodd" d="M89.1081 30.0278L88.8581 29.8333C88.3776 26.1833 86.6303 22.3806 83.9025 19.175C79.472 13.9667 72.2498 10 62.5831 10C53.0553 10 46.3414 14.3444 42.3803 19.7306C40.5315 22.2215 39.211 25.0639 38.4998 28.0833C38.3706 28.6488 38.2668 29.2197 38.1887 29.7944L37.8887 30.025C34.7664 32.4444 32.4748 35.3778 33.0192 38.7417C33.5414 41.9917 36.4803 43.9694 39.2137 45.1778C39.91 45.4852 40.6572 45.7741 41.4553 46.0444C41.0537 49.1758 41.3239 52.3567 42.2479 55.3755C43.1719 58.3942 44.7284 61.1814 46.8139 63.5515C48.8994 65.9215 51.466 67.82 54.3426 69.1205C57.2193 70.421 60.34 71.0937 63.497 71.0937C66.654 71.0937 69.7747 70.421 72.6514 69.1205C75.528 67.82 78.0946 65.9215 80.1801 63.5515C82.2656 61.1814 83.8221 58.3942 84.7461 55.3755C85.6701 52.3567 85.9403 49.1758 85.5387 46.0444C86.3368 45.7759 87.084 45.487 87.7803 45.1778C90.5137 43.9694 93.4498 41.9917 93.9748 38.7417C94.5192 35.3778 92.2275 32.4444 89.1053 30.025M43.8998 34.0861C43.5387 33.0472 43.4442 31.3778 43.9137 29.3139C44.3748 27.3 45.3303 25.0917 46.8303 23.0472V30.8333C46.8303 31.57 47.123 32.2766 47.6439 32.7975C48.1649 33.3185 48.8714 33.6111 49.6081 33.6111C50.3448 33.6111 51.0514 33.3185 51.5723 32.7975C52.0932 32.2766 52.3859 31.57 52.3859 30.8333V18.0833C54.672 16.7833 57.4359 15.875 60.7192 15.625V25.2778C60.7192 26.0145 61.0119 26.721 61.5328 27.242C62.0537 27.7629 62.7603 28.0556 63.497 28.0556C64.2337 28.0556 64.9402 27.7629 65.4612 27.242C65.9821 26.721 66.2748 26.0145 66.2748 25.2778V15.7972C69.2081 16.1667 72.0398 17.1106 74.6081 18.575V30.8333C74.6081 31.57 74.9008 32.2766 75.4217 32.7975C75.9426 33.3185 76.6492 33.6111 77.3859 33.6111C78.1226 33.6111 78.8291 33.3185 79.3501 32.7975C79.871 32.2766 80.1637 31.57 80.1637 30.8333V23.3833C83.2331 27.3167 83.9526 31.5611 83.0887 34.1083C82.8747 34.7388 82.8942 35.4251 83.1437 36.0423C83.3933 36.6596 83.8562 37.1667 84.4482 37.4713C85.0402 37.7758 85.7219 37.8577 86.3692 37.7018C87.0165 37.546 87.5863 37.1629 87.9748 36.6222C88.522 37.3861 88.5026 37.7917 88.4914 37.8556C88.4553 38.0778 88.0303 38.9944 85.5331 40.1C84.4498 40.5778 83.1609 41.0083 81.7137 41.3889L81.647 41.4056C80.0776 41.8111 78.3303 42.1556 76.4609 42.4389C72.9937 42.9385 69.4992 43.2261 65.997 43.3C63.5894 43.3611 61.1805 43.3351 58.7748 43.2222C56.0078 43.0968 53.2488 42.8335 50.5081 42.4333C48.7709 42.1816 47.0481 41.8385 45.347 41.4056L45.2803 41.3889C43.9746 41.0628 42.6973 40.6317 41.4609 40.1C38.9637 38.9944 38.5387 38.0778 38.5026 37.8556C38.4914 37.7917 38.472 37.3861 39.0192 36.6222C39.4084 37.1653 39.9803 37.55 40.63 37.7056C41.2798 37.8613 41.9639 37.7775 42.5569 37.4697C43.1499 37.1619 43.6121 36.6507 43.8587 36.0297C44.1054 35.4088 44.12 34.7197 43.8998 34.0889M46.8914 47.4472C47.8155 47.6269 48.7674 47.7907 49.747 47.9389C52.7137 48.3833 55.9081 48.6667 59.1581 48.8C62.055 48.9194 64.9556 48.9194 67.8526 48.8C71.0859 48.6667 74.2692 48.3833 77.222 47.9389C78.2109 47.7944 79.1711 47.6306 80.1026 47.4472C80.3001 49.7477 80.0175 52.064 79.2727 54.2495C78.5279 56.435 77.3371 58.4418 75.7759 60.1429C74.2147 61.8439 72.317 63.202 70.2033 64.1311C68.0896 65.0601 65.8059 65.5398 63.497 65.5398C61.1881 65.5398 58.9044 65.0601 56.7907 64.1311C54.677 63.202 52.7793 61.8439 51.2181 60.1429C49.6569 58.4418 48.4661 56.435 47.7213 54.2495C46.9765 52.064 46.6939 49.7477 46.8914 47.4472Z" fill="#E6F2FF"/>
<path fill-rule="evenodd" clip-rule="evenodd" d="M77.3889 72.4722C79.2167 72.7916 81.0778 73.1638 82.9444 73.5888C98.0639 77.0416 113.5 83.9444 113.5 93.3333V110H13.5V93.3333C13.5 83.9444 28.9361 77.0416 44.0556 73.5888C45.8976 73.1694 47.7501 72.7971 49.6111 72.4722V84.9999H77.3889V72.4722ZM38.5 80.8055C40.3167 80.2499 42.1806 79.7472 44.0556 79.2944V90.5555H82.9444V79.2972C85.7587 79.9689 88.5396 80.7735 91.2778 81.7083V104.444H96.8333V83.8805C97.6407 84.2398 98.4167 84.6092 99.1611 84.9888C102.319 86.5944 104.661 88.25 106.144 89.8333C107.603 91.3888 107.944 92.5361 107.944 93.3333V104.444H19.0556V93.3333C19.0556 92.5361 19.3972 91.3888 20.8556 89.8333C22.3389 88.25 24.6806 86.5944 27.8389 84.9888C29.4194 84.1833 31.1333 83.4277 32.9444 82.7249V104.444H38.5V80.8055Z" fill="#E6F2FF"/>
<path d="M111.853 79.0639L103.202 70.4092L97.9877 75.5652L92.773 70.4092L99.7055 63.4118C100.196 62.9207 100.748 62.5631 101.362 62.3388C101.975 62.1146 102.589 62.0016 103.202 62C103.857 62 104.481 62.1129 105.075 62.3388C105.669 62.5647 106.19 62.9224 106.638 63.4118L111.853 68.6292C112.589 69.3248 113.131 70.1334 113.48 71.0549C113.828 71.9765 114.002 72.907 114 73.8465C113.998 74.7861 113.825 75.7068 113.48 76.6087C113.135 77.5106 112.592 78.329 111.853 79.0639ZM78.0491 90.358C77.3129 89.6215 76.9448 88.7523 76.9448 87.7506C76.9448 86.7488 77.3129 85.8789 78.0491 85.1407L84.0613 79.0639L89.2761 84.2813L83.2025 90.358C82.5072 91.0946 81.6589 91.4629 80.6577 91.4629C79.6564 91.4629 78.7869 91.0946 78.0491 90.358ZM75.411 108.588C74.9611 108.097 74.6135 107.555 74.3681 106.963C74.1227 106.37 74 105.746 74 105.089C74 104.433 74.1129 103.81 74.3387 103.219C74.5644 102.628 74.9219 102.085 75.411 101.591L92.773 84.2813L84.9816 76.4245C84.2454 75.7289 83.8773 74.8802 83.8773 73.8785C83.8773 72.8767 84.2454 72.0067 84.9816 71.2685C85.6769 70.532 86.5358 70.1637 87.5583 70.1637C88.5808 70.1637 89.4601 70.532 90.1963 71.2685L97.9877 79.0639L101.485 75.5652L108.356 82.5627C108.847 83.0537 109.092 83.6266 109.092 84.2813C109.092 84.9361 108.847 85.5089 108.356 86C107.865 86.491 107.292 86.7366 106.638 86.7366C105.984 86.7366 105.411 86.491 104.92 86L82.3436 108.588C81.8528 109.079 81.3104 109.438 80.7166 109.664C80.1227 109.889 79.5198 110.002 78.908 110C78.2961 109.998 77.6826 109.876 77.0675 109.632C76.4524 109.388 75.9002 109.04 75.411 108.588Z" fill="#80C2FF"/>
</svg>
