<svg width="40" height="40" viewBox="0 0 40 40" fill="none" xmlns="http://www.w3.org/2000/svg">
<circle cx="20" cy="20" r="20" fill="white"/>
<mask id="mask0_100_417" style="mask-type:alpha" maskUnits="userSpaceOnUse" x="0" y="0" width="40" height="40">
<path d="M40 20C40 31.0457 31.0457 40 20 40C8.9543 40 0 31.0457 0 20C0 8.9543 8.9543 0 20 0C31.0457 0 40 8.9543 40 20Z" fill="white"/>
</mask>
<g mask="url(#mask0_100_417)">
<path d="M27 11.125C27 14.991 23.866 18.125 20 18.125C16.134 18.125 13 14.991 13 11.125C13 7.25901 16.134 4.125 20 4.125C23.866 4.125 27 7.25901 27 11.125Z" fill="#DDDDDD"/>
<path d="M35 35.125C35 43.4093 28.2843 50.125 20 50.125C11.7157 50.125 5 43.4093 5 35.125C5 26.8407 11.7157 20.125 20 20.125C28.2843 20.125 35 26.8407 35 35.125Z" fill="#DDDDDD"/>
</g>
</svg>
