<svg width="15" height="16" viewBox="0 0 15 16" fill="none" xmlns="http://www.w3.org/2000/svg">
<path d="M0 2C0 0.896 0.904661 0 2.01933 0H4.90409C5.13362 3.38746e-09 5.35375 0.0903059 5.51605 0.251051C5.67834 0.411797 5.76952 0.629814 5.76952 0.857143C5.76952 1.08447 5.67834 1.30249 5.51605 1.46323C5.35375 1.62398 5.13362 1.71429 4.90409 1.71429H2.01933C1.94282 1.71429 1.86945 1.74439 1.81535 1.79797C1.76125 1.85155 1.73086 1.92422 1.73086 2V14C1.73086 14.1577 1.86009 14.2857 2.01933 14.2857H4.90409C5.13362 14.2857 5.35375 14.376 5.51605 14.5368C5.67834 14.6975 5.76952 14.9155 5.76952 15.1429C5.76952 15.3702 5.67834 15.5882 5.51605 15.7489C5.35375 15.9097 5.13362 16 4.90409 16H2.01933C1.48377 16 0.970148 15.7893 0.591449 15.4142C0.212751 15.0391 0 14.5304 0 14V2ZM12.0468 7.14286L9.77357 4.89143C9.65965 4.78666 9.57638 4.6534 9.53251 4.50569C9.48865 4.35798 9.48582 4.20128 9.52433 4.05211C9.56284 3.90294 9.64126 3.76682 9.75133 3.65809C9.86139 3.54935 9.99903 3.47204 10.1497 3.43429C10.3002 3.39622 10.4582 3.39895 10.6072 3.44218C10.7562 3.48541 10.8908 3.56755 10.9967 3.68L14.7469 7.39429C14.909 7.555 15 7.77286 15 8C15 8.22714 14.909 8.445 14.7469 8.60571L10.9967 12.32C10.8909 12.4328 10.7564 12.5153 10.6072 12.5588C10.4581 12.6022 10.2999 12.605 10.1493 12.5669C9.99867 12.5287 9.86123 12.451 9.75145 12.342C9.64166 12.233 9.5636 12.0967 9.52548 11.9474C9.48705 11.7984 9.4898 11.6419 9.53345 11.4943C9.5771 11.3467 9.66004 11.2135 9.77357 11.1086L12.0468 8.85714H5.48105C5.25152 8.85714 5.0314 8.76684 4.8691 8.60609C4.7068 8.44535 4.61562 8.22733 4.61562 8C4.61562 7.77267 4.7068 7.55465 4.8691 7.39391C5.0314 7.23316 5.25152 7.14286 5.48105 7.14286H12.0468Z" fill="#FF0700"/>
</svg>
